<svg xmlns="http://www.w3.org/2000/svg" xmlns:xlink="http://www.w3.org/1999/xlink" fill="none" version="1.1" width="12" height="12.000015258789062" viewBox="0 0 12 12.000015258789062"><g><g><path d="M9.16667,2.13534L9.16667,1.5Q9.16667,1.29289,9.02022,1.14645Q8.87377,1,8.66667,1L1.5,1Q1.29289,1,1.14645,1.14645Q1,1.29289,1,1.5L1,8.66667Q1,9.16667,1.5,9.16667L2.19983,9.16667L2.19983,10.1667L1.5,10.1667Q0.87868,10.1667,0.43934,9.72733Q-2.98023e-8,9.28799,0,8.66667L5.96046e-8,1.5Q-8.9407e-8,0.87868,0.43934,0.43934Q0.87868,0,1.5,0L8.66667,5.96046e-8Q9.28799,0,9.72733,0.43934Q10.1667,0.87868,10.1667,1.5L10.1667,2.13534L9.16667,2.13534Z" fill-rule="evenodd" fill="#F53F3F" fill-opacity="1"/></g><g><path d="M1.833251953125,3.333343505859375L1.833251953125,10.500013505859375Q1.833251953125,11.121333505859376,2.272591953125,11.560673505859375Q2.711931953125,12.000043505859376,3.333251953125,12.000043505859376L10.499921953125,12.000043505859376Q11.121241953125,12.000043505859376,11.560581953125,11.560673505859375Q11.999951953125,11.121333505859376,11.999951953125,10.500013505859375L11.999951953125,3.333343505859375Q11.999951953125,2.712023505859375,11.560581953125,2.272683505859375Q11.121241953125,1.833343476057075,10.499921953125,1.833343505859375L3.333251953125,1.833343505859375Q2.711931953125,1.833343505859375,2.272591953125,2.272683505859375Q1.8332519829273,2.712023505859375,1.833251953125,3.333343505859375ZM3.333251953125,11.000013505859375Q2.833251953125,11.000013505859375,2.833251953125,10.500013505859375L2.833251953125,3.333343505859375Q2.833251953125,2.833343505859375,3.333251953125,2.833343505859375L10.499921953125,2.833343505859375Q10.999921953125,2.833343505859375,10.999921953125,3.333343505859375L10.999921953125,10.500013505859375Q10.999921953125,11.000013505859375,10.499921953125,11.000013505859375L3.333251953125,11.000013505859375Z" fill-rule="evenodd" fill="#F53F3F" fill-opacity="1"/></g><g transform="matrix(0.7071067690849304,0.7071067690849304,-0.7071067690849304,0.7071067690849304,4.218966583686637,-4.129412915464485)"><g transform="matrix(0,1,-1,0,13.372894763946533,-7.316821575164795)"><path d="M15.844858169555664,4.028036594390869L10.344858169555664,4.028036594390869L10.344858169555664,3.028036594390869L15.844858169555664,3.028036594390869L15.844858169555664,4.028036594390869Z" fill-rule="evenodd" fill="#F53F3F" fill-opacity="1"/></g><g transform="matrix(-1,0,0,-1,25.188251495361328,12.556561470031738)"><path d="M18.094125747680664,7.278280735015869L12.594125747680664,7.278280735015869L12.594125747680664,6.278280735015869L18.094125747680664,6.278280735015869L18.094125747680664,7.278280735015869Z" fill-rule="evenodd" fill="#F53F3F" fill-opacity="1"/></g></g></g></svg>